Normalized EMG Linear Envelopes
nRows=54
nColumns=17

endheader
time	        VM	        VL	        RF	       GRA	        TA	   ADDLONG	   SEMIMEM	      BFLH	        GM	        GL	       TFL	   GLUTMAX	   GLUTMED	      PIRI	    OBTINT	        QF	
2.7	  0.346026	  0.401949	  0.064244	  0.206627	  0.102639	  0.052186	  0.601299	  0.267635	  0.803983	  0.533143	  0.057387	  0.177247	  0.262946	  0.566245	  0.730540	  0.283639	
2.7005	  0.341829	  0.396293	  0.063577	  0.205170	  0.102215	  0.051979	  0.598497	  0.265889	  0.799478	  0.531626	  0.056900	  0.174557	  0.262286	  0.565709	  0.725897	  0.279182	
2.701	  0.337618	  0.390653	  0.062909	  0.203727	  0.101786	  0.051787	  0.595648	  0.264149	  0.794848	  0.530057	  0.056418	  0.171873	  0.261642	  0.565100	  0.721336	  0.274785	
2.7015	  0.333394	  0.385028	  0.062240	  0.202299	  0.101353	  0.051612	  0.592756	  0.262413	  0.790094	  0.528435	  0.055940	  0.169194	  0.261016	  0.564417	  0.716861	  0.270450	
2.702	  0.329158	  0.379418	  0.061570	  0.200886	  0.100916	  0.051453	  0.589821	  0.260683	  0.785218	  0.526760	  0.055467	  0.166523	  0.260406	  0.563662	  0.712472	  0.266177	
2.7025	  0.324911	  0.373823	  0.060900	  0.199491	  0.100477	  0.051310	  0.586846	  0.258958	  0.780221	  0.525033	  0.054998	  0.163860	  0.259814	  0.562838	  0.708170	  0.261966	
2.703	  0.320653	  0.368244	  0.060230	  0.198112	  0.100034	  0.051184	  0.583832	  0.257240	  0.775105	  0.523254	  0.054534	  0.161206	  0.259238	  0.561945	  0.703958	  0.257819	
2.7035	  0.316386	  0.362680	  0.059558	  0.196750	  0.099589	  0.051074	  0.580782	  0.255527	  0.769870	  0.521422	  0.054075	  0.158562	  0.258678	  0.560985	  0.699836	  0.253736	
2.704	  0.312109	  0.357133	  0.058887	  0.195407	  0.099143	  0.050980	  0.577696	  0.253820	  0.764519	  0.519538	  0.053620	  0.155928	  0.258133	  0.559960	  0.695805	  0.249717	
2.7045	  0.307825	  0.351603	  0.058215	  0.194082	  0.098694	  0.050902	  0.574575	  0.252120	  0.759053	  0.517601	  0.053169	  0.153307	  0.257605	  0.558873	  0.691868	  0.245764	
2.705	  0.303533	  0.346091	  0.057543	  0.192775	  0.098245	  0.050841	  0.571422	  0.250425	  0.753472	  0.515610	  0.052723	  0.150697	  0.257091	  0.557724	  0.688024	  0.241876	
2.7055	  0.299234	  0.340596	  0.056871	  0.191488	  0.097796	  0.050796	  0.568236	  0.248736	  0.747780	  0.513565	  0.052282	  0.148101	  0.256591	  0.556516	  0.684276	  0.238055	
2.706	  0.294931	  0.335121	  0.056198	  0.190219	  0.097346	  0.050768	  0.565019	  0.247053	  0.741977	  0.511465	  0.051844	  0.145520	  0.256106	  0.555251	  0.680624	  0.234300	
2.7065	  0.290623	  0.329664	  0.055525	  0.188971	  0.096897	  0.050756	  0.561772	  0.245376	  0.736066	  0.509309	  0.051411	  0.142953	  0.255635	  0.553929	  0.677069	  0.230611	
2.707	  0.286312	  0.324226	  0.054852	  0.187742	  0.096448	  0.050760	  0.558494	  0.243704	  0.730050	  0.507097	  0.050982	  0.140401	  0.255177	  0.552552	  0.673612	  0.226989	
2.7075	  0.282001	  0.318809	  0.054180	  0.186533	  0.096001	  0.050781	  0.555188	  0.242038	  0.723930	  0.504827	  0.050557	  0.137866	  0.254732	  0.551121	  0.670254	  0.223434	
2.708	  0.277690	  0.313413	  0.053508	  0.185345	  0.095556	  0.050818	  0.551852	  0.240377	  0.717709	  0.502499	  0.050136	  0.135348	  0.254300	  0.549638	  0.666995	  0.219946	
2.7085	  0.273380	  0.308038	  0.052836	  0.184176	  0.095112	  0.050872	  0.548488	  0.238722	  0.711391	  0.500112	  0.049718	  0.132848	  0.253881	  0.548103	  0.663836	  0.216525	
2.709	  0.269075	  0.302687	  0.052165	  0.183028	  0.094672	  0.050943	  0.545095	  0.237071	  0.704978	  0.497666	  0.049304	  0.130366	  0.253475	  0.546516	  0.660777	  0.213171	
2.7095	  0.264775	  0.297360	  0.051496	  0.181901	  0.094234	  0.051030	  0.541673	  0.235425	  0.698475	  0.495161	  0.048893	  0.127903	  0.253082	  0.544880	  0.657818	  0.209885	
2.71	  0.260481	  0.292057	  0.050827	  0.180794	  0.093800	  0.051134	  0.538223	  0.233784	  0.691885	  0.492595	  0.048486	  0.125460	  0.252702	  0.543195	  0.654960	  0.206666	
2.7105	  0.256195	  0.286782	  0.050160	  0.179709	  0.093370	  0.051254	  0.534744	  0.232146	  0.685212	  0.489969	  0.048083	  0.123036	  0.252336	  0.541460	  0.652204	  0.203515	
2.711	  0.251920	  0.281535	  0.049495	  0.178644	  0.092945	  0.051391	  0.531237	  0.230513	  0.678461	  0.487282	  0.047682	  0.120633	  0.251984	  0.539678	  0.649549	  0.200431	
2.7115	  0.247655	  0.276317	  0.048832	  0.177601	  0.092525	  0.051545	  0.527700	  0.228883	  0.671634	  0.484534	  0.047284	  0.118251	  0.251645	  0.537847	  0.646997	  0.197415	
2.712	  0.243404	  0.271131	  0.048171	  0.176580	  0.092110	  0.051715	  0.524133	  0.227257	  0.664735	  0.481723	  0.046890	  0.115891	  0.251321	  0.535968	  0.644548	  0.194467	
2.7125	  0.239168	  0.265977	  0.047512	  0.175580	  0.091701	  0.051902	  0.520537	  0.225633	  0.657767	  0.478851	  0.046498	  0.113552	  0.251012	  0.534041	  0.642201	  0.191586	
2.713	  0.234948	  0.260856	  0.046856	  0.174602	  0.091298	  0.052105	  0.516911	  0.224012	  0.650735	  0.475916	  0.046108	  0.111236	  0.250718	  0.532067	  0.639959	  0.188773	
2.7135	  0.230745	  0.255770	  0.046204	  0.173646	  0.090902	  0.052326	  0.513256	  0.222393	  0.643641	  0.472918	  0.045720	  0.108942	  0.250439	  0.530045	  0.637821	  0.186028	
2.714	  0.226563	  0.250720	  0.045554	  0.172712	  0.090513	  0.052563	  0.509569	  0.220776	  0.636490	  0.469858	  0.045335	  0.106671	  0.250176	  0.527975	  0.635788	  0.183349	
2.7145	  0.222401	  0.245708	  0.044908	  0.171800	  0.090132	  0.052817	  0.505853	  0.219162	  0.629284	  0.466735	  0.044952	  0.104424	  0.249929	  0.525858	  0.633861	  0.180738	
2.715	  0.218262	  0.240733	  0.044266	  0.170910	  0.089760	  0.053088	  0.502107	  0.217550	  0.622027	  0.463550	  0.044570	  0.102200	  0.249697	  0.523693	  0.632040	  0.178194	
2.7155	  0.214148	  0.235798	  0.043628	  0.170042	  0.089395	  0.053375	  0.498332	  0.215940	  0.614723	  0.460306	  0.044189	  0.100001	  0.249481	  0.521479	  0.630327	  0.175716	
2.716	  0.210059	  0.230903	  0.042994	  0.169196	  0.089040	  0.053679	  0.494527	  0.214333	  0.607376	  0.457003	  0.043810	  0.097825	  0.249280	  0.519217	  0.628720	  0.173304	
2.7165	  0.205996	  0.226049	  0.042365	  0.168372	  0.088694	  0.054000	  0.490694	  0.212728	  0.599990	  0.453643	  0.043431	  0.095675	  0.249096	  0.516906	  0.627222	  0.170959	
2.717	  0.201962	  0.221237	  0.041740	  0.167570	  0.088358	  0.054338	  0.486832	  0.211126	  0.592567	  0.450227	  0.043054	  0.093550	  0.248926	  0.514545	  0.625833	  0.168679	
2.7175	  0.197958	  0.216468	  0.041121	  0.166789	  0.088033	  0.054692	  0.482942	  0.209526	  0.585111	  0.446758	  0.042677	  0.091450	  0.248773	  0.512134	  0.624551	  0.166465	
2.718	  0.193984	  0.211743	  0.040506	  0.166030	  0.087718	  0.055062	  0.479025	  0.207930	  0.577625	  0.443236	  0.042300	  0.089376	  0.248634	  0.509673	  0.623378	  0.164316	
2.7185	  0.190042	  0.207062	  0.039897	  0.165293	  0.087415	  0.055449	  0.475082	  0.206338	  0.570114	  0.439664	  0.041924	  0.087328	  0.248510	  0.507160	  0.622313	  0.162233	
2.719	  0.186133	  0.202427	  0.039294	  0.164576	  0.087123	  0.055852	  0.471115	  0.204748	  0.562580	  0.436042	  0.041548	  0.085306	  0.248402	  0.504597	  0.621356	  0.160214	
2.7195	  0.182259	  0.197838	  0.038696	  0.163881	  0.086844	  0.056272	  0.467124	  0.203163	  0.555027	  0.432372	  0.041172	  0.083310	  0.248308	  0.501982	  0.620505	  0.158261	
2.72	  0.178420	  0.193296	  0.038104	  0.163207	  0.086577	  0.056708	  0.463112	  0.201581	  0.547458	  0.428655	  0.040795	  0.081341	  0.248229	  0.499315	  0.619762	  0.156371	
2.7205	  0.174617	  0.188802	  0.037518	  0.162554	  0.086323	  0.057159	  0.459081	  0.200004	  0.539875	  0.424892	  0.040419	  0.079399	  0.248165	  0.496596	  0.619124	  0.154546	
2.721	  0.170850	  0.184356	  0.036939	  0.161921	  0.086083	  0.057627	  0.455031	  0.198430	  0.532283	  0.421084	  0.040042	  0.077483	  0.248115	  0.493824	  0.618591	  0.152784	
2.7215	  0.167122	  0.179960	  0.036366	  0.161310	  0.085856	  0.058110	  0.450966	  0.196860	  0.524684	  0.417232	  0.039665	  0.075595	  0.248081	  0.490999	  0.618163	  0.151086	
2.722	  0.163433	  0.175614	  0.035799	  0.160719	  0.085644	  0.058609	  0.446886	  0.195294	  0.517081	  0.413338	  0.039288	  0.073734	  0.248062	  0.488120	  0.617838	  0.149451	
2.7225	  0.159783	  0.171318	  0.035239	  0.160148	  0.085445	  0.059123	  0.442793	  0.193733	  0.509477	  0.409404	  0.038910	  0.071900	  0.248058	  0.485187	  0.617617	  0.147878	
2.723	  0.156174	  0.167073	  0.034686	  0.159599	  0.085262	  0.059653	  0.438689	  0.192175	  0.501874	  0.405431	  0.038532	  0.070093	  0.248070	  0.482198	  0.617499	  0.146367	
2.7235	  0.152605	  0.162881	  0.034140	  0.159070	  0.085093	  0.060197	  0.434576	  0.190621	  0.494275	  0.401421	  0.038153	  0.068313	  0.248098	  0.479155	  0.617483	  0.144918	
2.724	  0.149078	  0.158740	  0.033601	  0.158561	  0.084939	  0.060757	  0.430455	  0.189072	  0.486683	  0.397376	  0.037775	  0.066561	  0.248142	  0.476056	  0.617569	  0.143530	
2.7245	  0.145593	  0.154652	  0.033069	  0.158074	  0.084801	  0.061331	  0.426329	  0.187527	  0.479102	  0.393299	  0.037396	  0.064837	  0.248204	  0.472903	  0.617757	  0.142202	
2.725	  0.142151	  0.150618	  0.032544	  0.157607	  0.084679	  0.061919	  0.422199	  0.185987	  0.471533	  0.389191	  0.037017	  0.063140	  0.248282	  0.469695	  0.618048	  0.140935	
2.7255	  0.138751	  0.146637	  0.032027	  0.157161	  0.084573	  0.062522	  0.418067	  0.184451	  0.463979	  0.385054	  0.036638	  0.061470	  0.248379	  0.466432	  0.618441	  0.139727	
2.726	  0.135396	  0.142710	  0.031518	  0.156735	  0.084484	  0.063138	  0.413935	  0.182921	  0.456445	  0.380890	  0.036260	  0.059827	  0.248494	  0.463117	  0.618937	  0.138577	
2.7265	  0.132084	  0.138838	  0.031016	  0.156330	  0.084411	  0.063768	  0.409805	  0.181394	  0.448932	  0.376701	  0.035882	  0.058212	  0.248627	  0.459749	  0.619536	  0.137485	
